<svg id="visual" viewBox="0 0 960 540" width="960" height="540" xmlns="http://www.w3.org/2000/svg" xmlns:xlink="http://www.w3.org/1999/xlink" version="1.1"><rect x="0" y="0" width="960" height="540" fill="#f7f9fa"></rect><path d="M0 330L26.7 304.3C53.3 278.7 106.7 227.3 160 233.5C213.3 239.7 266.7 303.3 320 293.5C373.3 283.7 426.7 200.3 480 166C533.3 131.7 586.7 146.3 640 161.2C693.3 176 746.7 191 800 212.5C853.3 234 906.7 262 933.3 276L960 290L960 541L933.3 541C906.7 541 853.3 541 800 541C746.7 541 693.3 541 640 541C586.7 541 533.3 541 480 541C426.7 541 373.3 541 320 541C266.7 541 213.3 541 160 541C106.7 541 53.3 541 26.7 541L0 541Z" fill="#f36868" stroke-linecap="round" stroke-linejoin="miter"></path></svg>