<!--?xml version="1.0" standalone="no"?-->
              <svg id="sw-js-blob-svg" viewBox="0 0 100 100" xmlns="http://www.w3.org/2000/svg" version="1.1">
                    <defs> 
                        <linearGradient id="sw-gradient" x1="0" x2="1" y1="1" y2="0">
                            <stop id="stop1" stop-color="rgba(243, 104, 104, 1)" offset="0%"></stop>
                            <stop id="stop2" stop-color="rgba(243, 104, 104, 1)" offset="100%"></stop>
                        </linearGradient>
                    </defs>
                <path fill="url(#sw-gradient)" d="M26.2,-30.7C32.7,-25.7,35.8,-16.3,35.9,-7.6C35.9,1.1,32.8,9.2,28.6,16.5C24.4,23.9,19,30.6,11.8,33.7C4.7,36.8,-4.1,36.3,-13.5,34.1C-22.9,32,-32.7,28.3,-38.3,21C-43.9,13.7,-45.2,2.7,-43.1,-7.4C-41.1,-17.5,-35.7,-26.9,-28,-31.6C-20.3,-36.3,-10.1,-36.4,-0.1,-36.3C9.8,-36.1,19.7,-35.6,26.2,-30.7Z" width="100%" height="100%" transform="translate(50 50)" stroke-width="0" style="transition: all 0.3s ease 0s;"></path>
              </svg>