<svg id="visual" viewBox="0 0 900 600" width="900" height="600" xmlns="http://www.w3.org/2000/svg" xmlns:xlink="http://www.w3.org/1999/xlink" version="1.1"><path d="M0 259L13.7 257C27.3 255 54.7 251 82 249C109.3 247 136.7 247 163.8 238C191 229 218 211 245.2 196C272.3 181 299.7 169 327 159C354.3 149 381.7 141 409 154C436.3 167 463.7 201 491 211C518.3 221 545.7 207 573 191C600.3 175 627.7 157 654.8 161C682 165 709 191 736.2 198C763.3 205 790.7 193 818 176C845.3 159 872.7 137 886.3 126L900 115L900 0L886.3 0C872.7 0 845.3 0 818 0C790.7 0 763.3 0 736.2 0C709 0 682 0 654.8 0C627.7 0 600.3 0 573 0C545.7 0 518.3 0 491 0C463.7 0 436.3 0 409 0C381.7 0 354.3 0 327 0C299.7 0 272.3 0 245.2 0C218 0 191 0 163.8 0C136.7 0 109.3 0 82 0C54.7 0 27.3 0 13.7 0L0 0Z" fill="#ffa096"></path><path d="M0 349L13.7 358C27.3 367 54.7 385 82 379C109.3 373 136.7 343 163.8 323C191 303 218 293 245.2 289C272.3 285 299.7 287 327 278C354.3 269 381.7 249 409 259C436.3 269 463.7 309 491 324C518.3 339 545.7 329 573 307C600.3 285 627.7 251 654.8 247C682 243 709 269 736.2 287C763.3 305 790.7 315 818 310C845.3 305 872.7 285 886.3 275L900 265L900 113L886.3 124C872.7 135 845.3 157 818 174C790.7 191 763.3 203 736.2 196C709 189 682 163 654.8 159C627.7 155 600.3 173 573 189C545.7 205 518.3 219 491 209C463.7 199 436.3 165 409 152C381.7 139 354.3 147 327 157C299.7 167 272.3 179 245.2 194C218 209 191 227 163.8 236C136.7 245 109.3 245 82 247C54.7 249 27.3 253 13.7 255L0 257Z" fill="#fd8a7f"></path><path d="M0 523L13.7 517C27.3 511 54.7 499 82 482C109.3 465 136.7 443 163.8 444C191 445 218 469 245.2 476C272.3 483 299.7 473 327 458C354.3 443 381.7 423 409 426C436.3 429 463.7 455 491 464C518.3 473 545.7 465 573 457C600.3 449 627.7 441 654.8 439C682 437 709 441 736.2 440C763.3 439 790.7 433 818 429C845.3 425 872.7 423 886.3 422L900 421L900 263L886.3 273C872.7 283 845.3 303 818 308C790.7 313 763.3 303 736.2 285C709 267 682 241 654.8 245C627.7 249 600.3 283 573 305C545.7 327 518.3 337 491 322C463.7 307 436.3 267 409 257C381.7 247 354.3 267 327 276C299.7 285 272.3 283 245.2 287C218 291 191 301 163.8 321C136.7 341 109.3 371 82 377C54.7 383 27.3 365 13.7 356L0 347Z" fill="#fa7268"></path><path d="M0 565L13.7 565C27.3 565 54.7 565 82 556C109.3 547 136.7 529 163.8 529C191 529 218 547 245.2 554C272.3 561 299.7 557 327 551C354.3 545 381.7 537 409 536C436.3 535 463.7 541 491 546C518.3 551 545.7 555 573 549C600.3 543 627.7 527 654.8 528C682 529 709 547 736.2 549C763.3 551 790.7 537 818 532C845.3 527 872.7 531 886.3 533L900 535L900 419L886.3 420C872.7 421 845.3 423 818 427C790.7 431 763.3 437 736.2 438C709 439 682 435 654.8 437C627.7 439 600.3 447 573 455C545.7 463 518.3 471 491 462C463.7 453 436.3 427 409 424C381.7 421 354.3 441 327 456C299.7 471 272.3 481 245.2 474C218 467 191 443 163.8 442C136.7 441 109.3 463 82 480C54.7 497 27.3 509 13.7 515L0 521Z" fill="#dd6056"></path><path d="M0 601L13.7 601C27.3 601 54.7 601 82 601C109.3 601 136.7 601 163.8 601C191 601 218 601 245.2 601C272.3 601 299.7 601 327 601C354.3 601 381.7 601 409 601C436.3 601 463.7 601 491 601C518.3 601 545.7 601 573 601C600.3 601 627.7 601 654.8 601C682 601 709 601 736.2 601C763.3 601 790.7 601 818 601C845.3 601 872.7 601 886.3 601L900 601L900 533L886.3 531C872.7 529 845.3 525 818 530C790.7 535 763.3 549 736.2 547C709 545 682 527 654.8 526C627.7 525 600.3 541 573 547C545.7 553 518.3 549 491 544C463.7 539 436.3 533 409 534C381.7 535 354.3 543 327 549C299.7 555 272.3 559 245.2 552C218 545 191 527 163.8 527C136.7 527 109.3 545 82 554C54.7 563 27.3 563 13.7 563L0 563Z" fill="#c04e45"></path></svg>