<svg id="visual" viewBox="0 0 900 600" width="900" height="600" xmlns="http://www.w3.org/2000/svg" xmlns:xlink="http://www.w3.org/1999/xlink" version="1.1"><rect x="0" y="0" width="900" height="600" fill="#f7f9fa"></rect><defs><linearGradient id="grad1_0" x1="33.3%" y1="0%" x2="100%" y2="100%"><stop offset="20%" stop-color="#f7f9fa" stop-opacity="1"></stop><stop offset="80%" stop-color="#f7f9fa" stop-opacity="1"></stop></linearGradient></defs><defs><linearGradient id="grad2_0" x1="0%" y1="0%" x2="66.7%" y2="100%"><stop offset="20%" stop-color="#f7f9fa" stop-opacity="1"></stop><stop offset="80%" stop-color="#f7f9fa" stop-opacity="1"></stop></linearGradient></defs><g transform="translate(900, 0)"><path d="M0 297.5C-35.7 262 -71.5 226.5 -119 206.1C-166.5 185.8 -225.9 180.6 -257.6 148.7C-289.3 116.9 -293.4 58.5 -297.5 0L0 0Z" fill="#f36868"></path></g><g transform="translate(0, 600)"><path d="M0 -297.5C59.1 -293.8 118.3 -290.1 148.7 -257.6C179.2 -225.1 180.9 -163.7 200.9 -116C220.9 -68.3 259.2 -34.1 297.5 0L0 0Z" fill="#f36868"></path></g></svg>